<?xml version="1.0" encoding="utf-8"?>
<!-- Generator: Adobe Illustrator 27.0.1, SVG Export Plug-In . SVG Version: 6.00 Build 0)  -->
<svg version="1.1" id="圖層_1" xmlns="http://www.w3.org/2000/svg" xmlns:xlink="http://www.w3.org/1999/xlink" x="0px" y="0px"
	 viewBox="0 0 324 220" style="enable-background:new 0 0 324 220;" xml:space="preserve">
<style type="text/css">
	.st0{display:none;}
	.st1{display:inline;}
	.st2{fill:#66FEE6;}
	.st3{fill:none;stroke:#66FEE6;stroke-width:3;}
	.st4{display:inline;fill:#66FEE6;fill-opacity:0.2;}
	.st5{fill:#66FEE6;fill-opacity:0.2;}
</style>
<g class="st0">
	<g class="st1">
		<path class="st2" d="M167.6,67.5V16.7H308v29.4l-24.1,21.4H167.6z"/>
	</g>
	<g class="st1">
		<path class="st2" d="M49.8,171.4H16.1v32.3h33.7V171.4z"/>
	</g>
	<g class="st1">
		<path class="st2" d="M157,16.7l-21.7,23.1V67h29.6V16.7H157z"/>
		<path class="st2" d="M37.4,53.2h62.8l-8.8,11.5H49.8v38.3l-12.5,10.6V53.2z"/>
		<path class="st2" d="M278.4,153.9v-30l-12.9,13.4v25.9h-25.4l-11.5,12.5h29.1L278.4,153.9z"/>
		<path class="st2" d="M28.1,153.9v9.2h9.2v-9.2H28.1z"/>
		<path class="st2" d="M64.6,182.5h-5.1v7.4h5.1V182.5z"/>
	</g>
	<g class="st1">
		<path class="st3" d="M136,72.8h146.6v45.6l-16.4,17.3v27.4h-26.4l-17.3,18.2h-12.8 M107.8,181.3h102 M209.7,181.3l-8.2,9.1H59.5
			 M136,50.9h-33.7L91.4,64.6H49.5v39.2l-16.4,14.6v44.7 M23.1,163.1h36.4v35.6 M275.7,83.7v34.7l-6,5.9"/>
	</g>
	<path class="st4" d="M44.3,124.8v32.8h24v13.9h149.2l18.5-18.5h19.4v-28.2l11.5-12V80.4H128.8V60.6h-21.7L97.4,74H58.2v38.8
		L44.3,124.8z"/>
</g>
<g>
	<path class="st2" d="M167.5,67.3V16.5h140.4v29.4l-24.1,21.4H167.5z"/>
	<path class="st2" d="M49.8,171.2H16.1v32.3h33.7V171.2z"/>
	<path class="st2" d="M156.9,16.5l-21.7,23.1v27.2h29.6V16.5H156.9z"/>
	<path class="st2" d="M37.3,53h62.8l-8.8,11.5H49.8v38.3l-12.5,10.6V53z"/>
	<path class="st2" d="M278.4,153.6v-30L265.4,137v25.9H240l-11.5,12.5h29.1L278.4,153.6z"/>
	<path class="st2" d="M28.1,153.6v9.2h9.2v-9.2H28.1z"/>
	<path class="st2" d="M64.6,182.3h-5.1v7.4h5.1V182.3z"/>
	<path class="st3" d="M135.9,72.6h146.6v45.6l-16.4,17.3v27.4h-26.4l-17.3,18.2h-12.8 M107.7,181.1h102 M209.7,181.1l-8.2,9.1H59.4
		 M135.9,50.7h-33.7L91.3,64.3H49.4v39.2L33,118.2v44.7 M23,162.9h36.4v35.6 M275.6,83.4v34.7l-6,5.9"/>
	<path class="st5" d="M44.2,124.5v32.8h24v13.9h149.2l18.5-18.5h19.4v-28.2l11.5-12V80.2H128.8V60.4H107l-9.7,13.4H58.1v38.8
		L44.2,124.5z"/>
</g>
</svg>
