<svg width="292" height="188" viewBox="0 0 292 188" fill="none" xmlns="http://www.w3.org/2000/svg">
<path d="M151.609 51.5062V0.707031H292V30.1421L267.906 51.5062H151.609Z" fill="#66FEE6"/>
<path d="M33.8479 155.413H0.135742V187.74H33.8479V155.413Z" fill="#66FEE6"/>
<path d="M140.988 0.707031L119.283 23.7976V51.0444H148.838V0.707031H140.988Z" fill="#66FEE6"/>
<path d="M21.3788 37.1901H84.185L75.4106 48.7353H33.8477V87.0656L21.3788 97.6872V37.1901Z" fill="#66FEE6"/>
<path d="M262.444 137.865V107.847L249.513 121.24V147.101H224.114L212.568 159.57H241.662L262.444 137.865Z" fill="#66FEE6"/>
<path d="M12.1426 137.865V147.101H21.3788V137.865H12.1426Z" fill="#66FEE6"/>
<path d="M48.6256 166.497H43.5457V173.886H48.6256V166.497Z" fill="#66FEE6"/>
<path d="M119.984 56.7741H266.6V102.385L250.208 119.717V147.084H223.799L206.497 165.328H193.747M91.7537 165.328H193.747M193.747 165.328L185.551 174.45H43.4888M119.984 34.8809H86.2897L75.3618 48.5641H33.4716V87.7895L17.0797 102.385V147.084M7.0625 147.084H43.4888V182.66M259.673 67.6694V102.385L253.669 108.309" stroke="#66FEE6" stroke-width="3"/>
<path d="M28.3066 108.771V141.559H52.3208V155.414H201.486L219.958 136.941H239.354V108.771L250.899 96.7637V64.437H112.818V44.5791H91.1129L81.4148 57.9716H42.161V96.7637L28.3066 108.771Z" fill="#66FEE6" fill-opacity="0.2"/>
</svg>
