<svg width="403" height="124" viewBox="0 0 403 124" fill="none" xmlns="http://www.w3.org/2000/svg">
<path d="M19.9102 21.75L41.1534 50.3822H268.826L293.764 98.8723H372.272L386.588 122.425H402.289" stroke="#66FEE6" stroke-width="3"/>
<circle cx="16.2157" cy="15.2841" r="7.73621" stroke="#66FEE6" stroke-width="3"/>
<path d="M24.5826 20.0753C25.7479 18.1358 26.1607 15.836 25.7426 13.6123M16.0319 6.10423C13.7746 6.25944 11.6527 7.23783 10.069 8.85378M9.47374 21.1141C10.8935 22.8759 12.9105 24.0553 15.1422 24.4284" stroke="#66FEE6" stroke-width="5"/>
<path d="M17.7435 28.8389C21.1351 28.5336 24.2967 26.9939 26.6284 24.512M28.2224 9.74265C27.2985 6.97181 23.4198 3.57893 20.05 3.0884M3.06958 11.3973C2.18849 14.6867 2.54548 18.1851 4.07283 21.2287" stroke="#66FEE6" stroke-width="5"/>
<path d="M44.8477 57.7705H258.666" stroke="#66FEE6" stroke-width="5" stroke-linecap="round" stroke-dasharray="5 5"/>
<path d="M298.222 107.647L292.378 99.334H372.733L368.837 107.647H298.222Z" fill="#66FEE6"/>
</svg>
