<svg width="736" height="862" viewBox="0 0 736 862" fill="none" xmlns="http://www.w3.org/2000/svg">
<path d="M488.585 18H3V832.5L27.8741 859H230.652L240.926 844H507.511L520.489 859H733V813.5H689.2V211.5L660 183V81L689.2 53V5H500.481L488.585 18Z" fill="#292560" stroke="#66FEE6" stroke-width="5"/>
<rect x="658" y="829" width="15" height="15" fill="#66FEE6"/>
<rect x="680" y="829" width="15" height="15" fill="#66FEE6"/>
<rect x="702" y="829" width="15" height="15" fill="#66FEE6"/>
<path d="M704 63.5V3H732.5V795.5H704V203L681 178.5V86.5L704 63.5Z" fill="#66FEE6" stroke="#66FEE6" stroke-width="5"/>
<path d="M515.5 3H352L342 16.5H507L515.5 3Z" fill="#66FEE6"/>
<path d="M721 128L700 140.124L700 115.876L721 128Z" fill="#292560"/>
</svg>
