<svg width="12848" height="12848" viewBox="0 0 12848 12848" fill="none" xmlns="http://www.w3.org/2000/svg">
<g clip-path="url(#clip0_1_28)">
<path d="M6433.15 418.485C6440.05 285.708 6446.96 152.942 6453.86 20.1879C6501.51 22.7256 6549.13 25.6405 6596.71 28.9328C6587.4 161.573 6578.05 294.19 6568.64 426.785C6523.51 423.657 6478.34 420.89 6433.15 418.485ZM6590.11 428.34L6595.87 348.885C6629.66 351.405 6663.45 354.12 6697.23 357.029C6699.7 328.78 6702.17 300.535 6704.64 272.295C6670.46 269.362 6636.28 266.613 6602.1 264.049C6603.81 240.97 6605.51 217.888 6607.2 194.803C6641.71 197.389 6676.19 200.163 6710.65 203.124L6718.05 118.385C6683.18 115.386 6648.31 112.583 6613.41 109.976C6615.36 83.4904 6617.31 57.0111 6619.26 30.5383C6674.38 34.6598 6729.48 39.3098 6784.56 44.4883C6810.43 73.6056 6836.11 102.872 6861.6 132.286C6858.75 159.175 6855.9 186.071 6853.03 212.975C6837.71 224.742 6822.43 236.558 6807.19 248.421C6819.72 263.061 6832.19 277.747 6844.59 292.48C6841.81 318.478 6839.05 344.48 6836.29 370.485C6806.34 393.977 6776.52 417.658 6746.82 441.528C6694.6 436.652 6642.36 432.253 6590.08 428.329L6590.11 428.34Z" fill="white"/>
<path d="M6868.6 468.469C6883.77 336.386 6898.95 204.306 6914.12 72.2268C6961.28 77.6973 7008.42 83.5539 7055.57 89.7965C7048.6 142.028 7041.63 194.262 7034.65 246.5C7078.75 252.448 7122.8 258.718 7166.81 265.313C7163 290.69 7159.16 316.048 7155.29 341.385C7111.73 334.836 7068.13 328.62 7024.48 322.737C7017.24 376.889 7010.02 431.01 7002.82 485.101C6958.11 479.214 6913.37 473.67 6868.6 468.469ZM7148.82 219.464C7151.06 204.358 7152.18 196.82 7154.42 181.715C7125.48 177.461 7096.53 173.337 7067.59 169.343C7071.06 143.842 7074.54 118.351 7078.01 92.8691C7151.5 103.009 7224.85 114.099 7298.04 126.138L7279.14 239.995C7235.69 232.82 7192.25 225.976 7148.82 219.464ZM7023.98 488C7027.57 461.688 7031.17 435.388 7034.79 409.099C7060.19 412.583 7085.58 416.181 7110.95 419.895C7113.27 404.081 7114.44 396.169 7116.77 380.356C7162 387.056 7207.17 394.125 7252.29 401.563L7232.71 519.563C7163.25 508.133 7093.67 497.613 7023.98 488Z" fill="white"/>
<path d="M7524.87 584.482C7535.03 535.766 7545.23 487.027 7555.47 438.265C7497.2 426.163 7438.81 414.653 7380.31 403.736C7357.89 372.449 7335.27 341.33 7312.45 310.379C7317.56 280.868 7322.68 251.356 7327.78 221.841C7360.24 200.479 7392.85 179.338 7425.59 158.418C7441.4 161.335 7457.2 164.303 7473 167.323L7446.44 306.383C7509.44 318.487 7572.28 331.319 7634.96 344.877C7655.59 376.613 7676.01 408.477 7696.21 440.469C7688.98 472.211 7681.74 503.971 7674.49 535.751C7642.13 555.546 7609.96 575.577 7577.96 595.843C7560.27 591.977 7542.58 588.189 7524.87 584.482ZM7340.29 548.296C7322.68 518.046 7304.87 487.913 7286.89 457.899C7289.63 442.142 7290.99 434.265 7293.72 418.502C7338.72 426.364 7383.64 434.591 7428.48 443.182C7425.49 458.733 7422.5 474.281 7419.51 489.826C7452.56 496.226 7485.56 502.826 7518.51 509.625C7513.66 533.159 7508.8 556.707 7503.93 580.269C7449.51 569.018 7394.96 558.36 7340.29 548.296ZM7583.67 303.555C7586.95 287.896 7588.6 280.076 7591.88 264.431C7555.09 256.775 7518.27 249.324 7481.41 242.078C7485.97 218.624 7490.54 195.121 7495.11 171.569C7550.89 182.49 7606.59 193.951 7662.21 205.954C7681.27 233.773 7700.18 261.678 7718.94 289.669L7709.55 330.999C7667.67 321.516 7625.71 312.368 7583.67 303.555Z" fill="white"/>
<path d="M7743.07 312.373L7762.77 227.821C7882.74 255.962 8002 286.774 8120.57 320.255C8112.65 348.109 8104.73 375.963 8096.82 403.82C7979.62 370.659 7861.7 340.177 7743.07 312.373ZM7774.67 640.854C7798.06 546.633 7821.45 452.409 7844.84 358.185C7891.88 369.919 7938.85 382.055 7985.74 394.593C7960.57 488.352 7935.39 582.107 7910.2 675.858C7865.12 663.816 7819.94 652.148 7774.67 640.854Z" fill="white"/>
<path d="M8372.98 827.604C8389.56 780.643 8406.14 733.69 8422.73 686.746C8366.75 667.051 8310.57 647.953 8254.19 629.453C8236.22 595.513 8218 561.683 8199.53 527.965C8208.52 499.4 8217.51 470.824 8226.51 442.239C8261.47 425.385 8296.51 408.755 8331.63 392.35C8346.86 397.327 8362.07 402.343 8377.28 407.397L8332.45 541.746C8393.11 562.082 8453.54 583.077 8513.74 604.73C8529.92 638.893 8545.88 673.157 8561.61 707.523L8527.39 799.005C8492.79 814.377 8458.29 829.98 8423.89 845.816C8406.93 839.672 8389.96 833.602 8372.98 827.604ZM8195.35 767.383C8182.03 735.117 8168.47 702.916 8154.69 670.78C8159.48 655.524 8161.87 647.896 8166.68 632.645C8210.1 646.33 8253.39 660.385 8296.56 674.809L8281.48 719.841C8313.31 730.545 8345.06 741.419 8376.74 752.463C8368.8 775.152 8360.85 797.846 8352.91 820.544C8300.54 802.29 8248.01 784.566 8195.33 767.373L8195.35 767.383ZM8468.62 556.979C8473.95 541.904 8476.61 534.356 8481.95 519.252C8446.62 506.818 8411.21 494.605 8375.74 482.611C8383.38 459.911 8391.03 437.217 8398.67 414.529C8452.34 432.701 8505.84 451.392 8559.17 470.603C8574.39 500.697 8589.38 530.85 8604.15 561.064C8598.24 576.926 8595.28 584.888 8589.36 600.765C8549.21 585.882 8508.96 571.286 8468.62 556.979Z" fill="white"/>
<path d="M8518.09 895.543C8565.65 771.4 8613.25 647.272 8660.89 523.161C8704.94 540.112 8748.86 557.416 8792.65 575.071C8772.89 623.937 8753.13 672.789 8733.35 721.629C8774.38 738.283 8815.27 755.249 8856.03 772.529L8825.92 843.331C8785.58 826.226 8745.1 809.433 8704.5 792.954L8643.06 944.79C8601.53 928.06 8559.87 911.645 8518.09 895.543ZM8850.09 723.612L8864.91 688.431C8838.1 677.166 8811.23 666.025 8784.31 655.007C8794.04 631.169 8803.76 607.328 8813.48 583.486C8881.81 611.474 8949.77 640.343 9017.35 670.091C9001.8 705.291 8986.25 740.482 8970.72 775.666C8930.63 758.052 8890.41 740.715 8850.07 723.656L8850.09 723.612ZM8662.82 952.767C8672.89 928.201 8682.91 903.62 8692.9 879.023C8716.52 888.674 8740.09 898.434 8763.59 908.302C8769.78 893.559 8772.89 886.19 8779.08 871.446C8821.04 889.143 8862.86 907.156 8904.52 925.487L8856.18 1034.89C8792.07 1006.69 8727.61 979.328 8662.8 952.81L8662.82 952.767Z" fill="white"/>
<path d="M8925.53 1069.57C8980.29 948.423 9035.04 827.275 9089.79 706.132C9132.83 725.664 9175.72 745.521 9218.44 765.703C9161.45 885.776 9104.48 1005.9 9047.54 1126.08C9007.06 1106.95 8966.39 1088.11 8925.53 1069.57ZM9066.77 1135.22C9078.22 1111.27 9089.67 1087.32 9101.11 1063.36C9121.36 1073.07 9141.58 1082.84 9161.77 1092.68L9184.01 1047.33C9221.19 1065.57 9258.24 1084.07 9295.17 1102.82C9275.46 1141.49 9255.75 1180.16 9236.03 1218.83C9179.96 1190.31 9123.56 1162.44 9066.83 1135.24L9066.77 1135.22Z" fill="white"/>
<path d="M9287 1249.45L9471.02 895.639C9512.98 917.529 9554.77 939.748 9596.38 962.296L9405.89 1312.68C9366.42 1291.29 9326.79 1270.21 9287 1249.45ZM9424.62 1322.89C9437.36 1299.59 9450.11 1276.31 9462.87 1253.03C9482.59 1263.85 9502.27 1274.74 9521.9 1285.7L9546.56 1241.63C9582.74 1261.92 9618.78 1282.47 9654.68 1303.28L9589.29 1415.76C9534.76 1384.17 9479.87 1353.22 9424.62 1322.89Z" fill="white"/>
<path d="M9600.23 1437.26L9803.51 1094.1C9844.3 1118.33 9884.89 1142.88 9925.26 1167.75C9897.59 1212.59 9869.9 1257.43 9842.2 1302.26C9880.06 1325.7 9917.72 1349.42 9955.18 1373.41C9941.33 1394.99 9927.48 1416.57 9913.61 1438.15C9876.51 1414.41 9839.21 1390.94 9801.71 1367.76C9773.03 1414.22 9744.35 1460.68 9715.66 1507.13C9677.37 1483.53 9638.89 1460.23 9600.23 1437.26ZM9957.38 1324.14L9977.91 1291.96C9953.21 1276.28 9928.47 1260.68 9903.68 1245.17C9917.26 1223.3 9930.85 1201.43 9944.46 1179.57C10007.5 1218.85 10070 1258.95 10131.9 1299.86C10110.7 1331.94 10089.4 1364.04 10068.2 1396.17C10031.4 1371.88 9994.51 1347.87 9957.38 1324.14ZM9733.9 1518.37C9747.91 1495.82 9761.93 1473.27 9775.95 1450.72C9797.72 1464.27 9819.43 1477.92 9841.07 1491.66C9849.63 1478.18 9853.94 1471.43 9862.52 1457.94C9901.13 1482.57 9939.54 1507.49 9977.73 1532.71L9911.69 1632.46C9852.93 1593.67 9793.67 1555.64 9733.9 1518.37Z" fill="white"/>
<path d="M9935.38 1661.59C10009.7 1551.37 10084.1 1441.16 10158.4 1330.94C10197.8 1357.6 10237 1384.57 10276 1411.86L10046.9 1738.34C10010 1712.45 9972.78 1686.87 9935.38 1661.59ZM10133.5 1652.98L10178 1589.88C10206.5 1610.02 10234.8 1630.32 10263 1650.78C10287 1617.8 10311 1584.82 10335 1551.85C10306.3 1531.05 10277.5 1510.42 10248.6 1489.95L10294.6 1424.83C10339 1456.29 10383.1 1488.16 10427 1520.45C10434.2 1558.78 10441.3 1597.14 10448 1635.55L10375.9 1731C10346.3 1734.42 10316.6 1738.01 10287 1741.75C10280.6 1794.04 10273.8 1846.32 10266.6 1898.58C10228.1 1869.43 10189.3 1840.62 10150.3 1812.13C10158.2 1768.49 10165.8 1724.81 10173.1 1681.1C10160 1671.65 10146.7 1662.28 10133.5 1652.97L10133.5 1652.98Z" fill="white"/>
</g>
<defs>
<clipPath id="clip0_1_28">
<rect width="12848" height="12848" fill="white"/>
</clipPath>
</defs>
</svg>
