<?xml version="1.0" encoding="utf-8"?>
<!-- Generator: Adobe Illustrator 27.4.1, SVG Export Plug-In . SVG Version: 6.00 Build 0)  -->
<svg version="1.1" id="圖層_1" xmlns="http://www.w3.org/2000/svg" xmlns:xlink="http://www.w3.org/1999/xlink" x="0px" y="0px"
	 viewBox="0 0 1467 112" style="enable-background:new 0 0 1467 112;" xml:space="preserve">
<style type="text/css">
	.st0{fill:#FFFFFF;filter:url(#Adobe_OpacityMaskFilter);}
	.st1{mask:url(#mask0_98_2116_00000157275309437688793560000016337599867108178845_);}
	.st2{opacity:0.2;}
	.st3{fill:none;stroke:#FFFFFF;}
</style>
<defs>
	<filter id="Adobe_OpacityMaskFilter" filterUnits="userSpaceOnUse" x="-616" y="-227.1" width="2339.5" height="724.1">
		<feColorMatrix  type="matrix" values="1 0 0 0 0  0 1 0 0 0  0 0 1 0 0  0 0 0 1 0"/>
	</filter>
</defs>
<mask maskUnits="userSpaceOnUse" x="-616" y="-227.1" width="2339.5" height="724.1" id="mask0_98_2116_00000157275309437688793560000016337599867108178845_">
	<path class="st0" d="M-118.1,0h1468v51.7l-56,59.5h-1412V0z"/>
</mask>
<g class="st1">
	<g class="st2">
		<path class="st3" d="M1110.1-226.7l613.1,613.1"/>
		<path class="st3" d="M1095.9-226.7L1709,386.4"/>
		<path class="st3" d="M1081.6-226.7l613.1,613.1"/>
		<path class="st3" d="M1067.4-226.7l613.1,613.1"/>
		<path class="st3" d="M1053.2-226.7l613.1,613.1"/>
		<path class="st3" d="M1038.9-226.7L1652,386.4"/>
		<path class="st3" d="M1024.7-226.7l613.1,613.1"/>
		<path class="st3" d="M1010.5-226.7l613.1,613.1"/>
		<path class="st3" d="M996.2-226.7l613.1,613.1"/>
		<path class="st3" d="M982-226.7l613.1,613.1"/>
		<path class="st3" d="M967.8-226.7l613.1,613.1"/>
		<path class="st3" d="M953.5-226.7l613.1,613.1"/>
		<path class="st3" d="M939.3-226.7l613.1,613.1"/>
		<path class="st3" d="M925-226.7l613.1,613.1"/>
		<path class="st3" d="M910.8-226.7l613.1,613.1"/>
		<path class="st3" d="M896.6-226.7l613.1,613.1"/>
		<path class="st3" d="M882.3-226.7l613.1,613.1"/>
		<path class="st3" d="M868.1-226.7l613.1,613.1"/>
		<path class="st3" d="M853.9-226.7L1467,386.4"/>
		<path class="st3" d="M839.6-226.7l613.1,613.1"/>
		<path class="st3" d="M825.4-226.7l613.1,613.1"/>
		<path class="st3" d="M811.2-226.7l613.1,613.1"/>
		<path class="st3" d="M796.9-226.7L1410,386.4"/>
		<path class="st3" d="M782.7-226.7l613.1,613.1"/>
		<path class="st3" d="M768.5-226.7l613.1,613.1"/>
		<path class="st3" d="M754.2-226.7l613.1,613.1"/>
		<path class="st3" d="M740-226.7l613.1,613.1"/>
		<path class="st3" d="M725.8-226.7l613.1,613.1"/>
		<path class="st3" d="M711.5-226.7l613.1,613.1"/>
		<path class="st3" d="M697.3-226.7l613.1,613.1"/>
		<path class="st3" d="M683.1-226.7l613.1,613.1"/>
		<path class="st3" d="M668.8-226.7l613.1,613.1"/>
		<path class="st3" d="M654.6-226.7l613.1,613.1"/>
		<path class="st3" d="M640.4-226.7l613.1,613.1"/>
		<path class="st3" d="M626.1-226.7l613.1,613.1"/>
		<path class="st3" d="M611.9-226.7L1225,386.4"/>
		<path class="st3" d="M597.7-226.7l613.1,613.1"/>
		<path class="st3" d="M583.4-226.7l613.1,613.1"/>
		<path class="st3" d="M569.2-226.7l613.1,613.1"/>
		<path class="st3" d="M555-226.7L1168,386.4"/>
		<path class="st3" d="M540.7-226.7l613.1,613.1"/>
		<path class="st3" d="M526.5-226.7l613.1,613.1"/>
		<path class="st3" d="M512.3-226.7l613.1,613.1"/>
		<path class="st3" d="M498-226.7l613.1,613.1"/>
		<path class="st3" d="M483.8-226.7l613.1,613.1"/>
		<path class="st3" d="M469.5-226.7l613.1,613.1"/>
		<path class="st3" d="M455.3-226.7l613.1,613.1"/>
		<path class="st3" d="M441.1-226.7l613.1,613.1"/>
		<path class="st3" d="M426.8-226.7l613.1,613.1"/>
		<path class="st3" d="M412.6-226.7l613.1,613.1"/>
		<path class="st3" d="M398.4-226.7l613.1,613.1"/>
		<path class="st3" d="M384.1-226.7l613.1,613.1"/>
		<path class="st3" d="M369.9-226.7L983,386.4"/>
		<path class="st3" d="M355.7-226.7l613.1,613.1"/>
		<path class="st3" d="M341.4-226.7l613.1,613.1"/>
		<path class="st3" d="M327.2-226.7l613.1,613.1"/>
		<path class="st3" d="M313-226.7l613.1,613.1"/>
		<path class="st3" d="M298.7-226.7l613.1,613.1"/>
		<path class="st3" d="M284.5-226.7l613.1,613.1"/>
		<path class="st3" d="M270.3-226.7l613.1,613.1"/>
		<path class="st3" d="M256-226.7l613.1,613.1"/>
		<path class="st3" d="M241.8-226.7l613.1,613.1"/>
		<path class="st3" d="M227.6-226.7l613.1,613.1"/>
		<path class="st3" d="M213.3-226.7l613.1,613.1"/>
		<path class="st3" d="M199.1-226.7l613.1,613.1"/>
		<path class="st3" d="M184.9-226.7L798,386.4"/>
		<path class="st3" d="M170.6-226.7l613.1,613.1"/>
		<path class="st3" d="M156.4-226.7l613.1,613.1"/>
		<path class="st3" d="M142.2-226.7l613.1,613.1"/>
		<path class="st3" d="M127.9-226.7L741,386.4"/>
		<path class="st3" d="M113.7-226.7l613.1,613.1"/>
		<path class="st3" d="M99.5-226.7l613.1,613.1"/>
		<path class="st3" d="M85.2-226.7l613.1,613.1"/>
		<path class="st3" d="M71-226.7l613.1,613.1"/>
		<path class="st3" d="M56.8-226.7l613.1,613.1"/>
		<path class="st3" d="M42.5-226.7l613.1,613.1"/>
		<path class="st3" d="M28.3-226.7l613.1,613.1"/>
		<path class="st3" d="M14.1-226.7l613.1,613.1"/>
		<path class="st3" d="M-0.2-226.7l613.1,613.1"/>
		<path class="st3" d="M-14.4-226.7l613.1,613.1"/>
		<path class="st3" d="M-28.7-226.7l613.1,613.1"/>
		<path class="st3" d="M-42.9-226.7l613.1,613.1"/>
		<path class="st3" d="M-57.1-226.7L556,386.4"/>
		<path class="st3" d="M-71.4-226.7l613.1,613.1"/>
		<path class="st3" d="M-85.6-226.7l613.1,613.1"/>
		<path class="st3" d="M-99.8-226.7l613.1,613.1"/>
		<path class="st3" d="M-114.1-226.7L499,386.4"/>
		<path class="st3" d="M-128.3-226.7l613.1,613.1"/>
		<path class="st3" d="M-142.5-226.7l613.1,613.1"/>
		<path class="st3" d="M-156.8-226.7l613.1,613.1"/>
		<path class="st3" d="M-171-226.7l613.1,613.1"/>
		<path class="st3" d="M-185.2-226.7l613.1,613.1"/>
		<path class="st3" d="M-199.5-226.7l613.1,613.1"/>
		<path class="st3" d="M-213.7-226.7l613.1,613.1"/>
		<path class="st3" d="M-227.9-226.7l613.1,613.1"/>
		<path class="st3" d="M-242.2-226.7l613.1,613.1"/>
		<path class="st3" d="M-256.4-226.7l613.1,613.1"/>
		<path class="st3" d="M-270.6-226.7l613.1,613.1"/>
		<path class="st3" d="M-284.9-226.7l613.1,613.1"/>
		<path class="st3" d="M-299.1-226.7L314,386.4"/>
		<path class="st3" d="M-313.3-226.7l613.1,613.1"/>
		<path class="st3" d="M-327.6-226.7l613.1,613.1"/>
		<path class="st3" d="M-341.8-226.7l613.1,613.1"/>
		<path class="st3" d="M-356-226.7l613.1,613.1"/>
		<path class="st3" d="M-370.3-226.7l613.1,613.1"/>
		<path class="st3" d="M-384.5-226.7l613.1,613.1"/>
		<path class="st3" d="M-398.7-226.7l613.1,613.1"/>
		<path class="st3" d="M-413-226.7l613.1,613.1"/>
		<path class="st3" d="M-427.2-226.7l613.1,613.1"/>
		<path class="st3" d="M-441.4-226.7l613.1,613.1"/>
		<path class="st3" d="M-455.7-226.7l613.1,613.1"/>
		<path class="st3" d="M-469.9-226.7l613.1,613.1"/>
		<path class="st3" d="M-484.1-226.7l613.1,613.1"/>
		<path class="st3" d="M-498.4-226.7l613.1,613.1"/>
		<path class="st3" d="M-506.2-219.4l613.1,613.1"/>
		<path class="st3" d="M-514-212L99.1,401.1"/>
		<path class="st3" d="M-521.8-204.7L91.3,408.4"/>
		<path class="st3" d="M-529.6-197.3L83.4,415.8"/>
		<path class="st3" d="M-537.5-190L75.6,423.1"/>
		<path class="st3" d="M-545.3-182.6L67.8,430.5"/>
		<path class="st3" d="M-553.1-175.2L60,437.8"/>
		<path class="st3" d="M-560.9-167.9L52.2,445.2"/>
		<path class="st3" d="M-568.7-160.5L44.4,452.6"/>
		<path class="st3" d="M-576.5-153.2L36.5,459.9"/>
		<path class="st3" d="M-584.4-145.8L28.7,467.3"/>
		<path class="st3" d="M-592.2-138.5L20.9,474.6"/>
		<path class="st3" d="M-600-131.1L13.1,482"/>
		<path class="st3" d="M-607.8-123.8L5.3,489.3"/>
		<path class="st3" d="M-615.6-116.4L-2.5,496.7"/>
	</g>
</g>
</svg>
