<svg width="24" height="25" viewBox="0 0 24 25" fill="none" xmlns="http://www.w3.org/2000/svg">
<path d="M12.0013 21.271C11.8697 21.2718 11.7393 21.2465 11.6174 21.1968C11.4956 21.147 11.3848 21.0737 11.2913 20.981L3.52134 13.201C2.5467 12.2162 2 10.8866 2 9.50101C2 8.11544 2.5467 6.78584 3.52134 5.80101C4.5036 4.82152 5.83417 4.27148 7.22134 4.27148C8.60851 4.27148 9.93908 4.82152 10.9213 5.80101L12.0013 6.88101L13.0813 5.80101C14.0636 4.82152 15.3942 4.27148 16.7813 4.27148C18.1685 4.27148 19.4991 4.82152 20.4813 5.80101C21.456 6.78584 22.0027 8.11544 22.0027 9.50101C22.0027 10.8866 21.456 12.2162 20.4813 13.201L12.7113 20.981C12.6179 21.0737 12.5071 21.147 12.3852 21.1968C12.2634 21.2465 12.1329 21.2718 12.0013 21.271Z" fill="#F595F0"/>
</svg>
