<svg width="12848" height="12848" viewBox="0 0 12848 12848" fill="none" xmlns="http://www.w3.org/2000/svg">
<path d="M6707 519L6461.3 513.1L6472 62.5L6570.4 64.8L6561.6 433L6708.9 436.5L6707 519Z" fill="white"/>
<path d="M7079.7 547.002L6980.9 539.202L6963.8 432.802L6839.7 423.002L6806.2 525.502L6707.4 517.702L6868.7 78.1016L6988.3 87.5016L7079.7 547.002ZM6861.8 354.102L6953 361.302L6931.2 225.802C6928 206.902 6925.5 185.202 6923.6 160.902L6922.3 160.802C6918.3 179.202 6912.4 200.202 6904.6 223.702L6861.8 354.102Z" fill="white"/>
<path d="M7069.1 93.5L7382.2 132.9L7372.1 212.9L7264.4 199.3L7218.2 566.6L7121.2 554.4L7167.4 187.1L7059 173.5L7069.1 93.5Z" fill="white"/>
<path d="M7470.1 408.999L7449.2 527.199L7611.2 555.799L7598.3 628.999L7339.4 583.199L7417.9 139.199L7672.4 184.199L7659.5 257.399L7501.9 229.499L7483 336.399L7630.6 362.499L7617.8 434.999L7470.1 408.999Z" fill="white"/>
<path d="M7652.9 618.5C7630.1 590.9 7618.3 555.7 7617.3 512.9L7710 495.1C7710.4 525.6 7715.8 549.3 7726.2 566.3C7736.6 583.3 7752.8 594.2 7774.6 599.3C7791.5 603.2 7805.8 601.6 7817.4 594.5C7829 587.4 7836.6 576.2 7840.1 561C7843.6 545.7 7842.8 532.7 7837.7 522C7832.6 511.3 7821.7 501.2 7805.2 491.7L7746.6 457.4C7718.3 440.5 7699.1 419.4 7688.8 394.3C7678.5 369.1 7677 340.9 7684.2 309.5C7693.3 269.9 7714.1 241.8 7746.6 225.1C7779.1 208.5 7817.4 205.2 7861.6 215.4C7947 235.1 7989.6 284 7989.4 362.1L7902.5 383.1C7902.4 355.3 7897 333.3 7886.4 317.2C7875.8 301.1 7860.8 290.8 7841.4 286.3C7825.3 282.6 7811.5 283.9 7800.1 290.2C7788.7 296.5 7781.3 306.6 7778.1 320.6C7771.9 347.4 7784.4 370.5 7815.6 389.8L7873.9 425.4C7903.9 444 7923.8 465.1 7933.6 488.7C7943.4 512.2 7944.5 540.5 7936.9 573.5C7930.7 600.3 7919.3 622.7 7902.6 640.5C7885.9 658.4 7864.6 670.4 7838.9 676.7C7813.1 682.9 7784.6 682.4 7753.2 675.2C7709.1 665 7675.7 646.1 7652.9 618.5Z" fill="white"/>
<path d="M8020.1 263.102L8323.6 349.702L8301.5 427.302L8197 397.502L8095.4 753.502L8001.4 726.702L8103 370.702L7998 340.702L8020.1 263.102Z" fill="white"/>
<path d="M8516 894.502L8514.7 704.002L8468.8 687.202L8407.5 854.802L8315 821.002L8469.8 397.602L8620.7 452.802C8668.4 470.202 8699.8 494.202 8714.8 524.702C8729.8 555.202 8729.9 590.702 8715 631.302C8705 658.702 8690.6 679.902 8671.8 694.902C8653 709.902 8631.3 717.802 8606.6 718.702L8615.6 930.902L8516 894.502ZM8538.9 495.202L8490.7 627.002L8535.4 643.402C8574 657.502 8601.6 641.702 8618.3 596.002C8626 574.902 8627.1 557.402 8621.6 543.502C8616.1 529.602 8603.4 518.902 8583.5 511.702L8538.9 495.202Z" fill="white"/>
<path d="M8803.8 801L8756.5 911.3L8907.7 976.1L8878.4 1044.4L8636.7 940.9L8814.2 526.5L9051.8 628.3L9022.5 696.6L8875.4 633.6L8832.6 733.4L8970.4 792.4L8941.4 860.1L8803.8 801Z" fill="white"/>
<path d="M9126.9 1165L8905.8 1057.7L9102.7 652.102L9191.2 695.102L9030.4 1026.4L9162.9 1090.7L9126.9 1165Z" fill="white"/>
<path d="M9321.9 1050.1L9264.4 1155.5L9408.8 1234.3L9373.2 1299.5L9142.4 1173.6L9358.3 777.801L9585.2 901.601L9549.6 966.801L9409.1 890.201L9357.1 985.501L9488.7 1057.3L9453.4 1122L9321.9 1050.1Z" fill="white"/>
<path d="M9692.7 1495.9L9608.5 1443.7L9642.1 1341.3L9536.3 1275.7L9459.5 1351.4L9375.3 1299.2L9720.3 982.602L9822.3 1045.8L9692.7 1495.9ZM9587.5 1224.5L9665.2 1272.7L9707.9 1142.3C9713.8 1124 9721.4 1103.6 9730.9 1081.1L9729.8 1080.4C9717.8 1094.9 9703 1110.8 9685.2 1128.2L9587.5 1224.5Z" fill="white"/>
<path d="M9734.5 1499.9C9723.8 1465.8 9726 1428.7 9741.1 1388.6L9833.7 1407C9822.6 1435.4 9818.7 1459.4 9822 1479C9825.3 1498.6 9836.1 1514.9 9854.5 1527.8C9868.7 1537.8 9882.5 1541.6 9896 1539.4C9909.4 1537.2 9920.7 1529.7 9929.6 1516.8C9938.6 1504 9942.7 1491.6 9942 1479.7C9941.3 1467.8 9935 1454.4 9923.3 1439.5L9881.9 1385.7C9862.1 1359.4 9852.1 1332.7 9852.1 1305.5C9852 1278.3 9861.2 1251.5 9879.7 1225.2C9903 1191.9 9932.9 1173.7 9969.2 1170.5C10005.6 1167.3 10042.3 1178.7 10079.4 1204.7C10151.2 1255 10172.3 1316.3 10142.8 1388.7L10054.3 1375.5C10064.6 1349.7 10067.9 1327.3 10064.1 1308.3C10060.3 1289.4 10050.3 1274.2 10034 1262.8C10020.5 1253.3 10007.2 1249.3 9994.3 1250.9C9981.3 1252.4 9970.7 1259.1 9962.5 1270.9C9946.7 1293.4 9949.6 1319.5 9971.2 1349.1L10011.9 1404C10032.7 1432.6 10043.2 1459.6 10043.5 1485.1C10043.7 1510.6 10034.1 1537.2 10014.7 1564.9C9998.9 1587.4 9979.9 1603.8 9957.7 1614.1C9935.5 1624.4 9911.3 1627.6 9885.1 1623.7C9858.9 1619.8 9832.6 1608.6 9806.3 1590.2C9769.1 1564 9745.2 1534 9734.5 1499.9Z" fill="white"/>
<path d="M10156 1593L10082.2 1687.6L10211.9 1788.7L10166.2 1847.3L9958.9 1685.6L10236.1 1330.1L10439.9 1489L10394.2 1547.6L10268 1449.2L10201.2 1534.8L10319.4 1627L10274.1 1685.1L10156 1593Z" fill="white"/>
</svg>
