<svg width="2220" height="464" viewBox="0 0 2220 464" fill="none" xmlns="http://www.w3.org/2000/svg">
<g filter="url(#filter0_d_1629_23577)">
<mask id="mask0_1629_23577" style="mask-type:alpha" maskUnits="userSpaceOnUse" x="0" y="0" width="2208" height="312">
<rect width="29.8609" height="293.784" transform="matrix(0.754053 -0.656814 0.357405 0.933949 0.0732422 36.687)" fill="white"/>
<rect width="29.8609" height="293.784" transform="matrix(0.754053 -0.656814 0.357405 0.933949 832.073 36.687)" fill="white"/>
<rect width="29.8609" height="293.784" transform="matrix(0.754053 -0.656814 0.357405 0.933949 52.0732 36.687)" fill="white"/>
<rect width="29.8609" height="293.784" transform="matrix(0.754053 -0.656814 0.357405 0.933949 884.073 36.687)" fill="white"/>
<rect width="29.8609" height="293.784" transform="matrix(0.754053 -0.656814 0.357405 0.933949 104.073 36.687)" fill="white"/>
<rect width="29.8609" height="293.784" transform="matrix(0.754053 -0.656814 0.357405 0.933949 936.073 36.687)" fill="white"/>
<rect width="29.8609" height="293.784" transform="matrix(0.754053 -0.656814 0.357405 0.933949 156.073 36.687)" fill="white"/>
<rect width="29.8609" height="293.784" transform="matrix(0.754053 -0.656814 0.357405 0.933949 988.073 36.687)" fill="white"/>
<rect width="29.8609" height="293.784" transform="matrix(0.754053 -0.656814 0.357405 0.933949 208.073 36.687)" fill="white"/>
<rect width="29.8609" height="293.784" transform="matrix(0.754053 -0.656814 0.357405 0.933949 1040.07 36.687)" fill="white"/>
<rect width="29.8609" height="293.784" transform="matrix(0.754053 -0.656814 0.357405 0.933949 260.073 36.687)" fill="white"/>
<rect width="29.8609" height="293.784" transform="matrix(0.754053 -0.656814 0.357405 0.933949 1092.07 36.687)" fill="white"/>
<rect width="29.8609" height="293.784" transform="matrix(0.754053 -0.656814 0.357405 0.933949 312.074 36.687)" fill="white"/>
<rect width="29.8609" height="293.784" transform="matrix(0.754053 -0.656814 0.357405 0.933949 1144.07 36.6777)" fill="white"/>
<rect width="29.8609" height="293.784" transform="matrix(0.754053 -0.656814 0.357405 0.933949 1196.07 36.6777)" fill="white"/>
<rect width="29.8609" height="293.784" transform="matrix(0.754053 -0.656814 0.357405 0.933949 364.073 36.687)" fill="white"/>
<rect width="29.8609" height="293.784" transform="matrix(0.754053 -0.656814 0.357405 0.933949 1248.07 36.6777)" fill="white"/>
<rect width="29.8609" height="293.784" transform="matrix(0.754053 -0.656814 0.357405 0.933949 1300.07 36.6777)" fill="white"/>
<rect width="29.8609" height="293.784" transform="matrix(0.754053 -0.656814 0.357405 0.933949 416.073 36.687)" fill="white"/>
<rect width="29.8609" height="293.784" transform="matrix(0.754053 -0.656814 0.357405 0.933949 1352.07 36.6777)" fill="white"/>
<rect width="29.8609" height="293.784" transform="matrix(0.754053 -0.656814 0.357405 0.933949 1404.07 36.6777)" fill="white"/>
<rect width="29.8609" height="293.784" transform="matrix(0.754053 -0.656814 0.357405 0.933949 468.073 36.687)" fill="white"/>
<rect width="29.8609" height="293.784" transform="matrix(0.754053 -0.656814 0.357405 0.933949 1456.07 36.6777)" fill="white"/>
<rect width="29.8609" height="293.784" transform="matrix(0.754053 -0.656814 0.357405 0.933949 1508.07 36.6777)" fill="white"/>
<rect width="29.8609" height="293.784" transform="matrix(0.754053 -0.656814 0.357405 0.933949 520.073 36.687)" fill="white"/>
<rect width="29.8609" height="293.784" transform="matrix(0.754053 -0.656814 0.357405 0.933949 1560.07 36.6777)" fill="white"/>
<rect width="29.8609" height="293.784" transform="matrix(0.754053 -0.656814 0.357405 0.933949 572.073 36.687)" fill="white"/>
<rect width="29.8609" height="293.784" transform="matrix(0.754053 -0.656814 0.357405 0.933949 624.073 36.687)" fill="white"/>
<rect width="29.8609" height="293.784" transform="matrix(0.754053 -0.656814 0.357405 0.933949 676.073 36.687)" fill="white"/>
<rect width="29.8609" height="293.784" transform="matrix(0.754053 -0.656814 0.357405 0.933949 728.074 36.687)" fill="white"/>
<rect width="29.8609" height="293.784" transform="matrix(0.754053 -0.656814 0.357405 0.933949 780.073 36.687)" fill="white"/>
<rect width="29.8609" height="293.784" transform="matrix(0.754053 -0.656814 0.357405 0.933949 1612.07 36.687)" fill="white"/>
<rect width="29.8609" height="293.784" transform="matrix(0.754053 -0.656814 0.357405 0.933949 1664.07 19.6741)" fill="white"/>
<rect width="29.8609" height="293.784" transform="matrix(0.754053 -0.656814 0.357405 0.933949 1716.07 19.6741)" fill="white"/>
<rect width="29.8609" height="293.784" transform="matrix(0.754053 -0.656814 0.357405 0.933949 1768.07 19.6741)" fill="white"/>
<rect width="29.8609" height="293.784" transform="matrix(0.754053 -0.656814 0.357405 0.933949 1820.07 19.6741)" fill="white"/>
<rect width="29.8609" height="293.784" transform="matrix(0.754053 -0.656814 0.357405 0.933949 1872.07 19.6741)" fill="white"/>
<rect width="29.8609" height="293.784" transform="matrix(0.754053 -0.656814 0.357405 0.933949 1924.07 19.6741)" fill="white"/>
<rect width="29.8609" height="293.784" transform="matrix(0.754053 -0.656814 0.357405 0.933949 1976.07 19.6741)" fill="white"/>
<rect width="29.8609" height="293.784" transform="matrix(0.754053 -0.656814 0.357405 0.933949 2028.07 19.6741)" fill="white"/>
<rect width="29.8609" height="293.784" transform="matrix(0.754053 -0.656814 0.357405 0.933949 2080.07 19.6741)" fill="white"/>
</mask>
<g mask="url(#mask0_1629_23577)">
<rect x="92.0732" y="71.061" width="2133" height="59" fill="#F595F0"/>
</g>
</g>
<g filter="url(#filter1_d_1629_23577)">
<mask id="mask1_1629_23577" style="mask-type:alpha" maskUnits="userSpaceOnUse" x="8" y="152" width="2208" height="312">
<rect width="29.8609" height="293.784" transform="matrix(0.754053 -0.656814 0.357405 0.933949 8.07324 188.687)" fill="white"/>
<rect width="29.8609" height="293.784" transform="matrix(0.754053 -0.656814 0.357405 0.933949 840.073 188.687)" fill="white"/>
<rect width="29.8609" height="293.784" transform="matrix(0.754053 -0.656814 0.357405 0.933949 60.0732 188.687)" fill="white"/>
<rect width="29.8609" height="293.784" transform="matrix(0.754053 -0.656814 0.357405 0.933949 892.073 188.687)" fill="white"/>
<rect width="29.8609" height="293.784" transform="matrix(0.754053 -0.656814 0.357405 0.933949 112.073 188.687)" fill="white"/>
<rect width="29.8609" height="293.784" transform="matrix(0.754053 -0.656814 0.357405 0.933949 944.073 188.687)" fill="white"/>
<rect width="29.8609" height="293.784" transform="matrix(0.754053 -0.656814 0.357405 0.933949 164.073 188.687)" fill="white"/>
<rect width="29.8609" height="293.784" transform="matrix(0.754053 -0.656814 0.357405 0.933949 996.073 188.687)" fill="white"/>
<rect width="29.8609" height="293.784" transform="matrix(0.754053 -0.656814 0.357405 0.933949 216.073 188.687)" fill="white"/>
<rect width="29.8609" height="293.784" transform="matrix(0.754053 -0.656814 0.357405 0.933949 1048.07 188.687)" fill="white"/>
<rect width="29.8609" height="293.784" transform="matrix(0.754053 -0.656814 0.357405 0.933949 268.073 188.687)" fill="white"/>
<rect width="29.8609" height="293.784" transform="matrix(0.754053 -0.656814 0.357405 0.933949 1100.07 188.687)" fill="white"/>
<rect width="29.8609" height="293.784" transform="matrix(0.754053 -0.656814 0.357405 0.933949 320.074 188.687)" fill="white"/>
<rect width="29.8609" height="293.784" transform="matrix(0.754053 -0.656814 0.357405 0.933949 1152.07 188.678)" fill="white"/>
<rect width="29.8609" height="293.784" transform="matrix(0.754053 -0.656814 0.357405 0.933949 1204.07 188.678)" fill="white"/>
<rect width="29.8609" height="293.784" transform="matrix(0.754053 -0.656814 0.357405 0.933949 372.073 188.687)" fill="white"/>
<rect width="29.8609" height="293.784" transform="matrix(0.754053 -0.656814 0.357405 0.933949 1256.07 188.678)" fill="white"/>
<rect width="29.8609" height="293.784" transform="matrix(0.754053 -0.656814 0.357405 0.933949 1308.07 188.678)" fill="white"/>
<rect width="29.8609" height="293.784" transform="matrix(0.754053 -0.656814 0.357405 0.933949 424.073 188.687)" fill="white"/>
<rect width="29.8609" height="293.784" transform="matrix(0.754053 -0.656814 0.357405 0.933949 1360.07 188.678)" fill="white"/>
<rect width="29.8609" height="293.784" transform="matrix(0.754053 -0.656814 0.357405 0.933949 1412.07 188.678)" fill="white"/>
<rect width="29.8609" height="293.784" transform="matrix(0.754053 -0.656814 0.357405 0.933949 476.073 188.687)" fill="white"/>
<rect width="29.8609" height="293.784" transform="matrix(0.754053 -0.656814 0.357405 0.933949 1464.07 188.678)" fill="white"/>
<rect width="29.8609" height="293.784" transform="matrix(0.754053 -0.656814 0.357405 0.933949 1516.07 188.678)" fill="white"/>
<rect width="29.8609" height="293.784" transform="matrix(0.754053 -0.656814 0.357405 0.933949 528.073 188.687)" fill="white"/>
<rect width="29.8609" height="293.784" transform="matrix(0.754053 -0.656814 0.357405 0.933949 1568.07 188.678)" fill="white"/>
<rect width="29.8609" height="293.784" transform="matrix(0.754053 -0.656814 0.357405 0.933949 580.073 188.687)" fill="white"/>
<rect width="29.8609" height="293.784" transform="matrix(0.754053 -0.656814 0.357405 0.933949 632.073 188.687)" fill="white"/>
<rect width="29.8609" height="293.784" transform="matrix(0.754053 -0.656814 0.357405 0.933949 684.073 188.687)" fill="white"/>
<rect width="29.8609" height="293.784" transform="matrix(0.754053 -0.656814 0.357405 0.933949 736.074 188.687)" fill="white"/>
<rect width="29.8609" height="293.784" transform="matrix(0.754053 -0.656814 0.357405 0.933949 788.073 188.687)" fill="white"/>
<rect width="29.8609" height="293.784" transform="matrix(0.754053 -0.656814 0.357405 0.933949 1620.07 188.687)" fill="white"/>
<rect width="29.8609" height="293.784" transform="matrix(0.754053 -0.656814 0.357405 0.933949 1672.07 171.674)" fill="white"/>
<rect width="29.8609" height="293.784" transform="matrix(0.754053 -0.656814 0.357405 0.933949 1724.07 171.674)" fill="white"/>
<rect width="29.8609" height="293.784" transform="matrix(0.754053 -0.656814 0.357405 0.933949 1776.07 171.674)" fill="white"/>
<rect width="29.8609" height="293.784" transform="matrix(0.754053 -0.656814 0.357405 0.933949 1828.07 171.674)" fill="white"/>
<rect width="29.8609" height="293.784" transform="matrix(0.754053 -0.656814 0.357405 0.933949 1880.07 171.674)" fill="white"/>
<rect width="29.8609" height="293.784" transform="matrix(0.754053 -0.656814 0.357405 0.933949 1932.07 171.674)" fill="white"/>
<rect width="29.8609" height="293.784" transform="matrix(0.754053 -0.656814 0.357405 0.933949 1984.07 171.674)" fill="white"/>
<rect width="29.8609" height="293.784" transform="matrix(0.754053 -0.656814 0.357405 0.933949 2036.07 171.674)" fill="white"/>
<rect width="29.8609" height="293.784" transform="matrix(0.754053 -0.656814 0.357405 0.933949 2088.07 171.674)" fill="white"/>
</mask>
<g mask="url(#mask1_1629_23577)">
<rect x="100.073" y="223.061" width="2133" height="59" fill="#F595F0"/>
</g>
</g>
<defs>
<filter id="filter0_d_1629_23577" x="88.0732" y="67.061" width="2123.52" height="67" filterUnits="userSpaceOnUse" color-interpolation-filters="sRGB">
<feFlood flood-opacity="0" result="BackgroundImageFix"/>
<feColorMatrix in="SourceAlpha" type="matrix" values="0 0 0 0 0 0 0 0 0 0 0 0 0 0 0 0 0 0 127 0" result="hardAlpha"/>
<feOffset/>
<feGaussianBlur stdDeviation="2"/>
<feComposite in2="hardAlpha" operator="out"/>
<feColorMatrix type="matrix" values="0 0 0 0 0.960784 0 0 0 0 0.584314 0 0 0 0 0.941176 0 0 0 1 0"/>
<feBlend mode="normal" in2="BackgroundImageFix" result="effect1_dropShadow_1629_23577"/>
<feBlend mode="normal" in="SourceGraphic" in2="effect1_dropShadow_1629_23577" result="shape"/>
</filter>
<filter id="filter1_d_1629_23577" x="96.0732" y="219.061" width="2123.52" height="67" filterUnits="userSpaceOnUse" color-interpolation-filters="sRGB">
<feFlood flood-opacity="0" result="BackgroundImageFix"/>
<feColorMatrix in="SourceAlpha" type="matrix" values="0 0 0 0 0 0 0 0 0 0 0 0 0 0 0 0 0 0 127 0" result="hardAlpha"/>
<feOffset/>
<feGaussianBlur stdDeviation="2"/>
<feComposite in2="hardAlpha" operator="out"/>
<feColorMatrix type="matrix" values="0 0 0 0 0.960784 0 0 0 0 0.584314 0 0 0 0 0.941176 0 0 0 1 0"/>
<feBlend mode="normal" in2="BackgroundImageFix" result="effect1_dropShadow_1629_23577"/>
<feBlend mode="normal" in="SourceGraphic" in2="effect1_dropShadow_1629_23577" result="shape"/>
</filter>
</defs>
</svg>
