<?xml version="1.0" encoding="UTF-8"?>
<svg xmlns="http://www.w3.org/2000/svg" viewBox="0 0 9.11 20.21">
  <defs>
    <style>
      .cls-1 {
        isolation: isolate;
      }

      .cls-2 {
        mix-blend-mode: screen;
      }
    </style>
  </defs>
  <g class="cls-1">
    <g id="_圖層_2" data-name="圖層 2">
      <g id="_圖層_1-2" data-name="圖層 1">
        <g>
          <path d="m3.31,20.21s0-.25-.02-.65c0-.1,0-.21-.01-.34,0-.06.11-.19-.09-.14.13-.14.17-.24.07-.25.28-.24.16-.24.19-.33.03-.09.02-.16-.03-.21.16-.17.07-.2.06-.27.09-.09.1-.14-.16-.02-.52.27-.56.25-.09-.07.2-.13.12-.09-.21.09.06-.05.53-.34.23-.17.29-.19.28-.21.04-.08.32-.23.22-.22.13-.21.02-.1-.01-.16-.1-.2.08-.22.06-.39-.13-.46,0-.18-.01-.36-.02-.54,0-.18-.01-.37-.02-.55-.08-2.21-.15-4.41-.15-4.41l-2.35,1.41s-.02-.63-.05-1.53c0-.15-.01-.31-.02-.48,0-.08-.01-.16-.02-.25-.05-.02-.28.08.08-.18-.3.13,0-.08-.08-.08-.18.08-.39.19-.29.11.33-.22-.08,0,.27-.23.23-.18.76-.54.18-.25.3-.2.14-.13.32-.26.03-.04-.11.02-.16.03-.24.1-.25.06-.18-.03.04-.12-.05-.16-.11-.22.05-.08.31-.28-.03-.13-.21.08-.36.12-.05-.12.13-.1-.47.23-.11,0-.39.21.25-.2.08-.12-.11.02-.36.12,0-.15.37-.27.32-.29.24-.29-.19.07.06-.13-.33.05.13-.13.41-.34.18-.26-.15.04.13-.18-.09-.09.1-.11.13-.18.13-.22.35-.26-.14-.01-.15-.05.76-.5-.49.2.16-.24.15-.14-.05-.06-.17-.04-.06-.01.24-.24-.2-.02.05-.08-.35.12.1-.2.19-.16-.04-.07.13-.22,0-.04-.32.1-.23,0-.53.29.12-.12-.2.05.23-.16.17-.14.27-.23.09-.1.22-.22.11-.2,0-.04-.07-.05.06-.17.09-.1.28-.26-.1-.07.2-.21.24-.32.08-.31.28-.25.1-.23.07-.29-.03-.06-.09-.1-.16-.14-.01-.3-.02-.57-.03-.8-.02-.45-.03-.73-.03-.73L5.92,1.06l.23-.14c-.07.04-.08.05-.05.03l.28-.17s.01,0,.27-.16c-.03.02.22-.13.22-.13.33-.2.46-.28.24-.14l-.41.25s.41-.25.25-.15c.17-.1-.29.17-.04.02,0,0-.06.04-.36.21.36-.22.68-.41.45-.27.08-.05.57-.34.14-.08.1-.06.19-.11-.07.05-.49.29-.56.34-.28.17.26-.15.09-.05.18-.09,0,0,.04,0-.25.17.3-.18.35-.2.04-.01.16-.09.2-.11.11-.05-.21.13-.5.31-.3.2-.16.1-.14.09-.01.03-.04.04-.1.09-.16.13-.45.29-.32.22.12-.03-.46.28-.14.1-.06.06-.17.11.18-.09.22-.11.04-.02.05-.01.08-.02.48-.28.2-.1-.38.26.57-.32.17-.06.06.02.11-.05-.34.25.06.03.78-.44.64-.34.37-.15-.01.02.52-.29.16-.06,0,.01-.15.11-.29.21-.38.25.1-.01.05.05-.33.21-.53.34-.25.19.12-.06.04,0-.07.08-.43.29-.14.14-.04.11.21-.11.49-.27.34-.16.09-.04-.19.14-.36.26,0,.01,0,.03-.25.2,0,.01-.06.06-.05.08,0,.03,0,.07.26-.06-.25.22-.26.29-.18.31-.08.12-.07.18.2.09-.15.16-.14.23-.13.3,0,.07.04.13.04.21,0,.16.02.3,0,.48-.17,1.71-.36,3.64-.36,3.64l3.11-1.86s-.36.95-.9,2.37c-.03.07-.07.15-.12.24-.05.09-.11.18-.15.26-.19.17.08.07-.04.2.45-.21.49-.17-.03.2.36-.16-.13.2-.11.26.05,0-.05.1-.12.17.37-.19.16-.03.11.03-.11.13-.03.15-.17.29-.24.18-.29.24-.02.11-.07.07.52-.25-.07.14-.44.3-.6.43-.49.4-.2.15.19-.04.17,0,.15-.06-.22.2-.17.2.26-.12-.22.2.24-.04-.45.34.54-.19.17.11.32-.16-.09.12-.17.2-.19.15.28-.09-.15.2-.39.26-.55.38-.08.12.06,0-.05.08-.21.19-.24.17-.4.29-.28.24.23-.12,0,.05.09.02.23-.04-.33.39-.02.3-.18.16-.8.57-.36.36.34-.15.27-.07.42-.11-.1.13.25,0-.16.31.51-.23.17.05-.02.23-.16.13.35-.13-.15.2.18-.07-.23.21.12.04.38-.19.13,0,.12.04.21-.09-.27.23-.35.32-.07.19-.14.38-.22.57-.07.19-.14.38-.21.57-1.28,3.38-2.44,6.45-2.44,6.45Zm-1.85-8.89l2.35-1.41.21,6.04s.59-1.55,1.27-3.35c.07-.18.14-.36.21-.55.03-.09.07-.18.11-.28.04-.09-.13-.07.11-.28-.15.02-.31.04-.09-.16-.2.08.08-.12.13-.19.23-.17,0-.08.02-.12,0-.03-.04-.05.13-.18-.07,0,.33-.27.13-.18-.24.07.09-.2.1-.27.42-.29-.12,0,.2-.23.21-.16-.03-.05.3-.28.22-.2.13-.21,0-.2-.18.04.13-.21-.09-.15-.29.11-.56.2-.02-.18-.43.23-.7.36-.16,0,.08-.08.31-.25.07-.13.1-.12-.12-.05.07-.23.06-.06.57-.4.25-.24.34-.23.35-.26-.09-.03-.37.19-.17.05-.14,0-.35.18,0-.05.34-.28.42-.28-.13.02.16-.17.1-.08-.1,0,.13-.16.3-.23.16-.2.05-.18-.02-.08-.1-.12-.07-.22.16-.41.25-.66.25-.66l-2.46,1.47.62-6.24L1.23,4.86s.03.72.06,1.68c0,.16.07.29.1.45.1.03.16.08.15.17,0,.05.02.08,0,.13.05,0,.09-.01.07.02-.02.03.04.02-.3.24-.08.17.37.02.26.21.25-.09.21,0,.23.05.02.05-.02.14-.14.27.21-.07.17.02-.15.27.17-.07.19-.06.16,0,.13-.05-.28.23-.31.28.07-.02.11-.02.1,0,0,.02-.15.14-.25.22.54-.3.58-.3.52-.24-.34.23,0,.05-.37.29.2-.07-.02.1-.06.17.09,0-.05.12,0,.13.22-.09.42-.16.19.01.18-.09.11-.02.08.02-.54.34.11-.02-.27.22-.34.24-.01.09-.04.15.21-.08.19-.03.12.05,0,.08,0,.16,0,.23,0,.08,0,.15,0,.22,0,.14,0,.28.01.4.02.5.03.82.03.82Z"/>
          <path class="cls-2" d="m3.37,19.7s0-.25-.02-.65c0-.1,0-.21-.01-.34,0-.06.05-.16.07-.24.02-.08.07-.18-.09-.15.2-.19-.05-.11.09-.27.21-.16-.54.25-.19,0-.21.11.23-.17-.07-.02.09-.07-.22.09.21-.18.22-.15.25-.19-.12.01.01-.03-.39.19-.09,0-.02,0-.27.12-.11,0-.18.09.3-.22.24-.2.42-.27.36-.26.06-.1-.25.13.38-.27.11-.13.08-.07-.25.11-.28.11-.24.12-.26.11.1-.12-.77.45-.36.2-.35.18.39-.24-.26.14-.02-.02.43-.28-.45.23.13-.14-.18.09-.33.15-.2.06.18-.13.66-.44.31-.25.41-.26.39-.26.15-.12.24-.16-.62.35-.24.11-.03,0-.28.15-.23.11-.13.07.2-.14.16-.13-.16.05-.45.18.19-.25-.57.3-.25.06-.04-.11-.18.06.27-.25-.1-.07.37-.27.41-.33.14-.22.16-.14.18-.2.06-.17.13-.17,0-.18,0-.27,0-.09,0-.18,0-.27,0-.18-.01-.37-.02-.55-.08-2.21-.15-4.41-.15-4.41l-2.35,1.41s-.02-.63-.05-1.53c0-.15-.01-.31-.02-.48,0-.08,0-.17,0-.25,0-.09-.39.06,0-.26.59-.4.23-.23-.04-.11-.63.36-.41.2-.27.09-.42.23.13-.12.2-.19-.11.02-.15,0,.25-.29.28-.21.47-.37-.24,0-.38.18.13-.17-.22,0-.4.19-.1-.04.04-.17-.1.01.17-.2.04-.17-.34.16.15-.19.2-.26.14-.18,0-.19-.07-.25-.27.11-.3.08-.18-.04.31-.23-.23.04.09-.2.04-.07-.42.15-.22-.02,0-.04.11-.16.13-.23-.17.08-.44.21-.29.1-.19.09.23-.18.37-.3-.05,0,.26-.2.21-.2.15-.11.33-.25-.09-.02.54-.37.22-.23.44-.41-.17.05-.3.09-.4.1.34-.3-.05-.16-.07-.24.86-.54.57-.39.41-.32.02-.03-.32.15-.5.23.27-.21-.12-.02.09-.19.26-.2-.1-.03.17-.24.15-.13.23-.23-.18-.03-.11.04-.13.03-.28.1.02-.04-.11.02.49-.36-.27.14.27-.21-.03-.05.38-.25.29-.22-.2.06.18-.15-.09-.03.35-.34,0-.04-.47.19-.44.14-.06-.05-.32.02,0-.25-.11.03-.15.01-.14-.04-.08.01.3-.26.22-.25,0-.08,0-.15,0-.22,0-.07,0-.14,0-.21,0-.13,0-.26-.01-.37-.02-.45-.03-.73-.03-.73L5.98.55l.24-.14c.07-.04-.04.02.23-.14-.23.14-.16.1.11-.07s.63-.37-.09.06c-.33.2-.2.12-.18.11-.04.02.36-.21.04-.03l.39-.23c-.2.12-.49.29-.26.16-.12.07.22-.13.16-.1.37-.22-.44.27-.3.19-.04.03-.07.07.02.03-.22.15-.12.11-.1.13,0,0-.02.04.01.03,0,.02.42-.22.35-.16-.4.27.17-.03.05.08.06,0,.15,0,.02.12.23-.11.03.03.21-.06.4-.22-.05.08-.31.26.07,0-.13.18-.03.18.11-.04.16-.04.04.06-.05.06.17-.04-.26.25-.12.1-.14.15.08.05-.22.16-.17.17-.14.18,0,.07-.02.14,0,.2.02.06-.13.22.2.09-.19.19-.09.2-.08.27.01.07.04.13.03.21-.02.16-.03.33-.05.51-.17,1.71-.36,3.64-.36,3.64l3.11-1.86s-.36.95-.9,2.37c-.05.14-.02.24-.03.36.18-.05-.3.3-.15.27.05,0,.13-.02-.22.22-.1.09-.01.07.06.05.54-.29.68-.34.4-.15.37-.19-.24.21-.18.2-.17.13-.27.23-.18.2.2-.09.29-.11-.12.17-.34.27-.41.38-.15.28.17-.07.11,0,.03.08.13-.05.11,0-.19.22-.32.22-.46.32-.23.2.02,0,.03.03-.05.1-.06.08-.61.45-.16.23.13-.06.15-.04.17-.03.07-.02-.06.08-.17.17.19-.09.06,0-.11.13-.18.13-.31.23-.06.11-.12.12.37-.13.29-.04.42-.2-.1.15-.08.19-.09.12-.15.23-.16.31-.12.11.02.06,0,.11.29-.14,0,.08-.23.24-.11.14-.12.21.14.13-.11.1-.52.38-.19.22.1-.02.16-.02.03.09-.4.26-.16.14-.34.27-.07.07.17-.05-.03.09-.15.14-.23.23-.03.17-.12.17-.07.23-.06.33,0,.09.03.17.03.28-.14.38-.29.76-.43,1.13-1.28,3.38-2.44,6.45-2.44,6.45Zm-1.85-8.89l2.35-1.41.21,6.04s.59-1.55,1.27-3.35c.07-.18.14-.36.21-.55.03-.09.07-.18.11-.28.04-.09.07-.19.11-.28-.11,0-.12-.07.12-.29.41-.32-.37.08,0-.21-.05-.04.53-.46.22-.34-.02-.06.59-.49.08-.26-.16.03-.12-.07-.05-.18.41-.28-.3.11.1-.16-.29.14.25-.22.15-.19-.09.02.32-.26.19-.21.05-.06-.26.09.05-.13-.2.09.35-.28.21-.22.19-.15-.1,0-.26.06,0-.06-.1-.07-.02-.18-.22.07.23-.26.03-.2.14-.11.17-.16.32-.28.22-.16.08-.1-.14,0,.81-.54.19-.22.15-.25.15-.11.6-.41.17-.18-.23.11-.1,0,.14-.16,0-.06.22-.23.08-.19-.03-.07-.15-.09-.11-.2.16-.41.25-.66.25-.66l-2.46,1.47.62-6.24L1.29,4.35s.01.32.03.82c0,.12,0,.26.01.4,0,.07,0,.15,0,.22,0,.08,0,.15,0,.23.04.02-.02.1-.09.18-.6.38-.19.15-.29.23-.21.15.03.03.17-.04.27-.12-.4.33-.37.35-.22.18-.13.17.43-.13-.05.05.38-.18.19-.05-.39.25-.09.1.02.05.11-.05.33-.16.15-.02,0,.03-.13.12-.37.29-.63.4-.51.35-.24.21.09-.03-.04.07.09.01-.57.36-.06.08,0,.06-.34.22.27-.12.34-.13.22-.11-.16.14.11,0,.08-.03-.38.27-.31.25.59-.33-.08.09-.08.12-.65.41-.49.34.1,0-.49.32-.37.27-.37.29-.21.15.02.03.23-.07.09-.03.12-.02-.1.13-.1.08-.09.1.33-.13-.44.31-.05.12-.07.18.02.04.26-.06.19.02,0,.05-.41.34-.17.24-.21.17.17,0,.18.03.1-.01.11.02-.15.22-.34.25-.39.32.17.03,0,.08-.18.29.12.19-.64.43.23-.05-.02.14.04.02.23-.05.12.05.1-.01.03.06-.08.17.07,0,.04.06-.13.2,0,.16.01.31.02.46,0,.14,0,.28.01.4.02.5.03.82.03.82Z"/>
        </g>
        <polygon points="5.88 6.99 8.2 5.42 6.53 9.62 4.69 10.69 4.69 8.11 2.38 9.49 2.68 3.95 6.17 1.81 5.88 6.99"/>
      </g>
    </g>
  </g>
</svg>