<?xml version="1.0" encoding="utf-8"?>
<!-- Generator: Adobe Illustrator 27.0.1, SVG Export Plug-In . SVG Version: 6.00 Build 0)  -->
<svg version="1.1" id="圖層_1" xmlns="http://www.w3.org/2000/svg" xmlns:xlink="http://www.w3.org/1999/xlink" x="0px" y="0px"
	 viewBox="0 0 50 45" style="enable-background:new 0 0 50 45;" xml:space="preserve">
<style type="text/css">
	.st0{fill:#FFFFFF;}
</style>
<g>
	<path class="st0" d="M13.7,17c-2.3,1.7-2.2,4.7,0.4,6.1c-0.5,1.4-1.2,2.6-2.3,3.6c-0.6,0.5-1.3,0.6-2,0.3c-1.1-0.5-2.2-0.5-3.4,0
		c-0.7,0.3-1.4,0.3-2-0.3c-2-1.8-3.4-5.5-2.7-8.2c0.5-1.8,2.1-3,3.9-2.9c0.5,0,1,0.2,1.4,0.4c0.6,0.3,1.2,0.3,1.8,0
		c1-0.4,2-0.7,3.1-0.3C12.7,15.9,13.3,16.3,13.7,17z"/>
	<path class="st0" d="M20.5,27c-0.8,0-1.5,0-2.2,0c0-4.7,0-9.4,0-14.2c1.6,0,3.3,0,4.9,0c0.5,0,0.9,0,1.4,0.1
		c2.3,0.4,3.7,2.2,3.7,4.8c-0.1,2.3-1.6,4.1-3.8,4.4c-0.5,0.1-1,0.1-1.5,0.1c-0.8,0-1.6,0-2.4,0C20.5,23.8,20.5,25.4,20.5,27z
		 M20.5,20.3c1.2,0,2.3,0.1,3.4,0c1.3-0.1,2-1.1,2.1-2.6c0.1-1.4-0.6-2.5-1.8-2.8c-1.2-0.2-2.5-0.2-3.7-0.3
		C20.5,16.6,20.5,18.4,20.5,20.3z"/>
	<path class="st0" d="M35.5,20.9c0.2-1.4-0.2-2.1-1.1-2.4c-1.2-0.4-2.4,0-2.9,1.1c-0.1,0.1-0.2,0.3-0.3,0.3c-0.6,0-1.1,0-1.7,0
		c0-1,0.4-1.7,1.2-2.2c1.5-1.2,4.2-1.3,5.8-0.2c0.8,0.5,1.3,1.3,1.3,2.3c0,2.5,0,4.9,0,7.4c-0.7,0-1.3,0-2,0c0-0.5,0-1,0-1.6
		c-1.2,1.6-2.7,2-4.4,1.6c-1.4-0.3-2.3-1.4-2.4-2.8c-0.1-1.3,0.7-2.3,2.1-2.8c0.9-0.2,1.8-0.3,2.7-0.4C34.3,21,34.9,21,35.5,20.9z
		 M35.5,22.3c-1.2,0.1-2.4,0.2-3.5,0.5c-0.7,0.1-1,0.7-1,1.3c0,0.6,0.4,1.1,1,1.3C33.6,25.9,35.9,25,35.5,22.3z"/>
	<path class="st0" d="M39.7,30.9c0-0.6,0-1.1,0-1.7c0.2,0,0.4,0,0.6,0c1.4,0,2.3-1.4,1.9-2.7c-1.1-3.1-2.2-6.1-3.3-9.2
		c-0.1-0.2-0.1-0.3-0.2-0.6c0.7,0,1.4,0,2,0c0.1,0,0.3,0.3,0.4,0.4c0.8,2.4,1.5,4.9,2.3,7.3c0.1,0.2,0.1,0.3,0.2,0.6
		c0.1-0.3,0.2-0.5,0.2-0.7c0.7-2.4,1.5-4.7,2.2-7.1c0.1-0.5,0.4-0.7,0.9-0.6c0.5,0,1,0,1.5,0c0,0.2-0.1,0.3-0.1,0.5
		c-1.3,3.5-2.5,7-3.8,10.6c-0.2,0.5-0.5,1.1-0.7,1.6c-0.6,1-1.5,1.5-2.7,1.5C40.6,30.9,40.2,30.9,39.7,30.9z"/>
	<path class="st0" d="M10.9,11.8c0.3,1.7-1.3,3.5-3,3.5C7.5,13.8,9,12,10.9,11.8z"/>
</g>
</svg>
