<?xml version="1.0" encoding="utf-8"?>
<!-- Generator: Adobe Illustrator 27.0.1, SVG Export Plug-In . SVG Version: 6.00 Build 0)  -->
<svg version="1.1" id="圖層_1" xmlns="http://www.w3.org/2000/svg" xmlns:xlink="http://www.w3.org/1999/xlink" x="0px" y="0px"
	 viewBox="0 0 50 45" style="enable-background:new 0 0 50 45;" xml:space="preserve">
<style type="text/css">
	.st0{fill:#FFFFFF;}
</style>
<g>
	<g>
		<g>
			<path class="st0" d="M9.8,18.6h-1c-0.2,0-0.3,0.1-0.3,0.3v6.3c0,0.2,0.1,0.3,0.3,0.3h1c0.2,0,0.3-0.1,0.3-0.3v-6.3
				C10.1,18.7,9.9,18.6,9.8,18.6z"/>
			<path class="st0" d="M7.3,23.9H4.6v-5c0-0.2-0.1-0.3-0.3-0.3h-1c-0.2,0-0.3,0.1-0.3,0.3v6.3c0,0.2,0.1,0.3,0.3,0.3h4
				c0.2,0,0.3-0.1,0.3-0.3v-1C7.6,24,7.5,23.9,7.3,23.9z"/>
			<path class="st0" d="M22.4,20.2c0.2,0,0.3-0.1,0.3-0.3v-1c0-0.2-0.1-0.3-0.3-0.3h-4c-0.2,0-0.3,0.1-0.3,0.3v6.3
				c0,0.2,0.1,0.3,0.3,0.3h4c0.2,0,0.3-0.1,0.3-0.3v-1c0-0.2-0.1-0.3-0.3-0.3h-2.7v-1.1h2.7c0.2,0,0.3-0.1,0.3-0.3v-1
				c0-0.2-0.1-0.3-0.3-0.3h-2.7v-1.1H22.4z"/>
			<path class="st0" d="M16.8,18.6h-1c-0.2,0-0.3,0.1-0.3,0.3v3.7l-2.7-3.8c-0.1-0.1-0.2-0.1-0.3-0.1c0,0,0,0,0,0h-1
				c-0.2,0-0.3,0.1-0.3,0.3v6.3c0,0.2,0.1,0.3,0.3,0.3h1c0.2,0,0.3-0.1,0.3-0.3v-3.8l2.8,4c0,0,0,0,0,0c0,0.1,0.1,0.1,0.2,0.1
				c0,0,0,0,0.1,0h1c0.2,0,0.3-0.1,0.3-0.3v-6.3C17,18.7,16.9,18.6,16.8,18.6z"/>
		</g>
	</g>
	<g>
		<path class="st0" d="M44.1,15.9h-18c-0.4,0-0.7,0.3-0.7,0.7v10.8c0,0.4,0.3,0.7,0.7,0.7h18c0.4,0,0.7-0.3,0.7-0.7V16.7
			C44.8,16.3,44.5,15.9,44.1,15.9z M30.4,22.7h-0.8v1.6c0,0.1-0.1,0.2-0.2,0.2h-1c-0.1,0-0.2-0.1-0.2-0.2v-5.4
			c0-0.1,0.1-0.2,0.2-0.2h2c1.1,0,2,0.9,2,2C32.5,21.8,31.6,22.7,30.4,22.7z M37.1,24.5H36c-0.1,0-0.1-0.1-0.1-0.1v-0.2
			c-0.3,0.3-0.7,0.4-1.1,0.4c-1.1,0-2-1-2-2.2s0.9-2.2,2-2.2c0.5,0,0.8,0.1,1.1,0.4v-0.2c0-0.1,0.1-0.1,0.1-0.1h1.1
			c0.1,0,0.1,0.1,0.1,0.1v3.9C37.2,24.4,37.2,24.5,37.1,24.5z M40.2,26.1h-1.1c-0.1,0-0.1-0.1-0.1-0.2l0.6-1.5l-1.6-3.9
			c0-0.1,0-0.2,0.1-0.2h1.1c0.1,0,0.1,0,0.2,0.1l0.9,2.2l0.9-2.2c0-0.1,0.1-0.1,0.2-0.1h1.1c0.1,0,0.1,0.1,0.1,0.2L40.4,26
			C40.3,26,40.3,26.1,40.2,26.1z"/>
		<path class="st0" d="M35,21.5c-0.5,0-0.9,0.4-0.9,0.9s0.4,0.9,0.9,0.9c0.5,0,0.9-0.4,0.9-0.9S35.5,21.5,35,21.5z"/>
		<path class="st0" d="M30.4,20h-0.8v1.3h0.8c0.4,0,0.6-0.3,0.6-0.7C31,20.3,30.8,20,30.4,20z"/>
	</g>
</g>
</svg>
