<svg width="47" height="28" viewBox="0 0 47 28" fill="none" xmlns="http://www.w3.org/2000/svg">
<path fill-rule="evenodd" clip-rule="evenodd" d="M23.0932 24.6453L22.8327 24.4182C19.8622 21.8283 18 18.1186 18 14C18 9.8814 19.8622 6.1717 22.8327 3.58177L23.0932 3.35472C20.6468 1.2631 17.4709 0 14 0C6.26801 0 0 6.26801 0 14C0 21.732 6.26801 28 14 28C17.4709 28 20.6468 26.7369 23.0932 24.6453ZM23.9069 24.6453L24.1673 24.4182C27.1378 21.8283 29 18.1186 29 14C29 9.8814 27.1378 6.1717 24.1673 3.58177L23.9069 3.35472C26.3532 1.2631 29.5291 0 33 0C40.732 0 47 6.26801 47 14C47 21.732 40.732 28 33 28C29.5291 28 26.3532 26.7369 23.9069 24.6453ZM18.9831 14C18.9831 17.8493 20.7223 21.3154 23.5 23.7372C26.2777 21.3154 28.0169 17.8493 28.0169 14C28.0169 10.1507 26.2777 6.68455 23.5 4.26279C20.7223 6.68455 18.9831 10.1507 18.9831 14Z" fill="white"/>
</svg>
