<svg width="600" height="600" viewBox="0 0 600 600" fill="none" xmlns="http://www.w3.org/2000/svg">
<path fill-rule="evenodd" clip-rule="evenodd" d="M600 0H0V600H600V0ZM167.846 279.4H160.77V320H168.368V292.508H168.484L186.58 320H193.656V279.4H186.058V306.95H185.942L167.846 279.4ZM230.559 279.4H201.211V320H230.559V313.33H209.099V302.89H228.877V296.336H209.099V286.07H230.559V279.4ZM235.805 286.07V313.33L242.475 320H263.355L270.025 313.33V286.07L263.355 279.4H242.475L235.805 286.07ZM262.137 310.314L259.179 313.272H246.651L243.693 310.314V289.086L246.651 286.128H259.179L262.137 289.086V310.314ZM284.073 279.4H276.997V320H284.595V292.508H284.711L302.807 320H309.883V279.4H302.285V306.95H302.169L284.073 279.4ZM316.858 286.07V313.33L323.528 320H344.408L351.078 313.33V286.07L344.408 279.4H323.528L316.858 286.07ZM343.19 310.314L340.232 313.272H327.704L324.746 310.314V289.086L327.704 286.128H340.232L343.19 289.086V310.314ZM366.227 279.4H358.339V320H366.227V279.4ZM373.209 307.936V313.736L379.473 320H398.265L404.645 313.62V302.194L398.381 295.93H383.011L381.097 294.016V288.042L383.011 286.128H394.495L396.409 288.042V291.522H404.181V285.664L397.917 279.4H379.589L373.325 285.664V296.394L379.589 302.658H394.959L396.873 304.572V311.3L394.901 313.272H382.895L380.981 311.358V307.936H373.209ZM440.356 279.4H411.008V320H440.356V313.33H418.896V302.89H438.674V296.336H418.896V286.07H440.356V279.4Z" fill="#292560"/>
</svg>
